<mxfile host="65bd71144e">
    <diagram id="uQtb4kDnB-4BG6wCOJv8" name="Page-1">
        <mxGraphModel dx="1102" dy="1009" grid="1" gridSize="10" guides="1" tooltips="1" connect="1" arrows="1" fold="1" page="1" pageScale="1" pageWidth="827" pageHeight="1169" math="0" shadow="0">
            <root>
                <mxCell id="0"/>
                <mxCell id="1" parent="0"/>
                <mxCell id="VVbpX6g2l4Uk3AssUya3-3" value="" style="swimlane;startSize=0;fontSize=11;fillColor=none;strokeColor=#000000;swimlaneFillColor=none;rounded=0;shadow=0;sketch=0;swimlaneLine=1;verticalAlign=bottom;labelPosition=center;verticalLabelPosition=top;align=center;" parent="1" vertex="1">
                    <mxGeometry x="200" y="320" width="720" height="600" as="geometry"/>
                </mxCell>
                <mxCell id="9" style="edgeStyle=none;html=1;exitX=1;exitY=0.25;exitDx=0;exitDy=0;exitPerimeter=0;entryX=0;entryY=0.25;entryDx=0;entryDy=0;entryPerimeter=0;" edge="1" parent="VVbpX6g2l4Uk3AssUya3-3" source="VVbpX6g2l4Uk3AssUya3-43" target="8">
                    <mxGeometry relative="1" as="geometry"/>
                </mxCell>
                <mxCell id="10" value="2. HTTP body" style="edgeLabel;html=1;align=center;verticalAlign=middle;resizable=0;points=[];" vertex="1" connectable="0" parent="9">
                    <mxGeometry x="-0.1431" relative="1" as="geometry">
                        <mxPoint x="8" y="-1" as="offset"/>
                    </mxGeometry>
                </mxCell>
                <mxCell id="23" style="edgeStyle=none;html=1;fontSize=14;startArrow=none;startFill=0;endArrow=classicThin;endFill=1;" edge="1" parent="VVbpX6g2l4Uk3AssUya3-3" source="VVbpX6g2l4Uk3AssUya3-43" target="22">
                    <mxGeometry relative="1" as="geometry">
                        <Array as="points">
                            <mxPoint x="160" y="240"/>
                        </Array>
                    </mxGeometry>
                </mxCell>
                <mxCell id="24" value="4. set MessageId status to QUEUED" style="edgeLabel;html=1;align=center;verticalAlign=middle;resizable=0;points=[];fontSize=11;" vertex="1" connectable="0" parent="23">
                    <mxGeometry x="-0.7464" relative="1" as="geometry">
                        <mxPoint y="10" as="offset"/>
                    </mxGeometry>
                </mxCell>
                <mxCell id="VVbpX6g2l4Uk3AssUya3-43" value="&lt;span style=&quot;border-color: var(--border-color);&quot; class=&quot;e2e-test-stack-details-header awsui_root_18wu0_dj6ht_93 awsui_box_18wu0_dj6ht_205 awsui_color-default_18wu0_dj6ht_205 awsui_font-size-heading-xl_18wu0_dj6ht_366 awsui_font-weight-default_18wu0_dj6ht_261&quot;&gt;startQueryFunction&lt;br&gt;&lt;/span&gt;" style="sketch=0;points=[[0,0,0],[0.25,0,0],[0.5,0,0],[0.75,0,0],[1,0,0],[0,1,0],[0.25,1,0],[0.5,1,0],[0.75,1,0],[1,1,0],[0,0.25,0],[0,0.5,0],[0,0.75,0],[1,0.25,0],[1,0.5,0],[1,0.75,0]];outlineConnect=0;fontColor=#232F3E;gradientColor=#F78E04;gradientDirection=north;fillColor=#D05C17;strokeColor=#ffffff;dashed=0;verticalLabelPosition=top;verticalAlign=bottom;align=center;html=1;fontSize=11;fontStyle=1;aspect=fixed;shape=mxgraph.aws4.resourceIcon;resIcon=mxgraph.aws4.lambda;labelPosition=center;" parent="VVbpX6g2l4Uk3AssUya3-3" vertex="1">
                    <mxGeometry x="120" y="80" width="80" height="80" as="geometry"/>
                </mxCell>
                <mxCell id="VVbpX6g2l4Uk3AssUya3-44" value="" style="endArrow=classic;html=1;rounded=0;entryX=0;entryY=0.25;entryDx=0;entryDy=0;entryPerimeter=0;fontSize=11;" parent="VVbpX6g2l4Uk3AssUya3-3" target="VVbpX6g2l4Uk3AssUya3-43" edge="1">
                    <mxGeometry relative="1" as="geometry">
                        <mxPoint x="-80" y="100" as="sourcePoint"/>
                        <mxPoint x="80" y="99.75999999999999" as="targetPoint"/>
                    </mxGeometry>
                </mxCell>
                <mxCell id="VVbpX6g2l4Uk3AssUya3-45" value="1. POST query" style="edgeLabel;resizable=0;html=1;align=center;verticalAlign=middle;fontSize=11;" parent="VVbpX6g2l4Uk3AssUya3-44" connectable="0" vertex="1">
                    <mxGeometry relative="1" as="geometry"/>
                </mxCell>
                <mxCell id="14" style="edgeStyle=none;html=1;entryX=1;entryY=0.75;entryDx=0;entryDy=0;entryPerimeter=0;exitX=0;exitY=0.75;exitDx=0;exitDy=0;exitPerimeter=0;" edge="1" parent="VVbpX6g2l4Uk3AssUya3-3" source="8" target="VVbpX6g2l4Uk3AssUya3-43">
                    <mxGeometry relative="1" as="geometry"/>
                </mxCell>
                <mxCell id="15" value="3. MessageId" style="edgeLabel;html=1;align=center;verticalAlign=middle;resizable=0;points=[];" vertex="1" connectable="0" parent="14">
                    <mxGeometry x="0.0428" y="-1" relative="1" as="geometry">
                        <mxPoint as="offset"/>
                    </mxGeometry>
                </mxCell>
                <mxCell id="8" value="&lt;span style=&quot;font-size: 11px;&quot;&gt;&lt;b&gt;incomingQueue&lt;/b&gt;&lt;/span&gt;" style="sketch=0;points=[[0,0,0],[0.25,0,0],[0.5,0,0],[0.75,0,0],[1,0,0],[0,1,0],[0.25,1,0],[0.5,1,0],[0.75,1,0],[1,1,0],[0,0.25,0],[0,0.5,0],[0,0.75,0],[1,0.25,0],[1,0.5,0],[1,0.75,0]];outlineConnect=0;fontColor=#232F3E;gradientColor=#FF4F8B;gradientDirection=north;fillColor=#BC1356;strokeColor=#ffffff;dashed=0;verticalLabelPosition=top;verticalAlign=bottom;align=center;html=1;fontSize=12;fontStyle=0;aspect=fixed;shape=mxgraph.aws4.resourceIcon;resIcon=mxgraph.aws4.sqs;labelPosition=center;" vertex="1" parent="VVbpX6g2l4Uk3AssUya3-3">
                    <mxGeometry x="320" y="80" width="78" height="78" as="geometry"/>
                </mxCell>
                <mxCell id="17" value="" style="sketch=0;points=[[0,0,0],[0.25,0,0],[0.5,0,0],[0.75,0,0],[1,0,0],[0,1,0],[0.25,1,0],[0.5,1,0],[0.75,1,0],[1,1,0],[0,0.25,0],[0,0.5,0],[0,0.75,0],[1,0.25,0],[1,0.5,0],[1,0.75,0]];points=[[0,0,0],[0.25,0,0],[0.5,0,0],[0.75,0,0],[1,0,0],[0,1,0],[0.25,1,0],[0.5,1,0],[0.75,1,0],[1,1,0],[0,0.25,0],[0,0.5,0],[0,0.75,0],[1,0.25,0],[1,0.5,0],[1,0.75,0]];outlineConnect=0;fontColor=#232F3E;gradientColor=#F34482;gradientDirection=north;fillColor=#BC1356;strokeColor=#ffffff;dashed=0;verticalLabelPosition=bottom;verticalAlign=top;align=center;html=1;fontSize=12;fontStyle=0;aspect=fixed;shape=mxgraph.aws4.resourceIcon;resIcon=mxgraph.aws4.cloudformation;" vertex="1" parent="VVbpX6g2l4Uk3AssUya3-3">
                    <mxGeometry y="520" width="80" height="80" as="geometry"/>
                </mxCell>
                <mxCell id="VVbpX6g2l4Uk3AssUya3-50" value="&lt;div class=&quot;awsui-util-action-stripe-title&quot; style=&quot;font-size: 14px;&quot;&gt;&lt;span class=&quot;e2e-test-stack-details-header awsui_root_18wu0_dj6ht_93 awsui_box_18wu0_dj6ht_205 awsui_color-default_18wu0_dj6ht_205 awsui_font-size-heading-xl_18wu0_dj6ht_366 awsui_font-weight-default_18wu0_dj6ht_261&quot; style=&quot;&quot;&gt;&lt;b&gt;asynchronous-api&lt;/b&gt;&lt;/span&gt;&lt;div class=&quot;awsui_root_18wu0_dj6ht_93 awsui_box_18wu0_dj6ht_205 awsui_m-left-s_18wu0_dj6ht_853 awsui_d-inline-block_18wu0_dj6ht_984 awsui_color-default_18wu0_dj6ht_205 awsui_font-size-default_18wu0_dj6ht_221 awsui_font-weight-default_18wu0_dj6ht_261&quot; style=&quot;&quot;&gt;&lt;br style=&quot;&quot;&gt;&lt;/div&gt;&lt;/div&gt;" style="text;html=1;align=center;verticalAlign=middle;resizable=0;points=[];autosize=1;strokeColor=none;fillColor=none;fontSize=11;" parent="VVbpX6g2l4Uk3AssUya3-3" vertex="1">
                    <mxGeometry x="80" y="535" width="140" height="50" as="geometry"/>
                </mxCell>
                <mxCell id="20" style="edgeStyle=none;html=1;fontSize=14;startArrow=classic;startFill=1;" edge="1" parent="VVbpX6g2l4Uk3AssUya3-3" source="19" target="8">
                    <mxGeometry relative="1" as="geometry"/>
                </mxCell>
                <mxCell id="21" value="6. Poll events" style="edgeLabel;html=1;align=center;verticalAlign=middle;resizable=0;points=[];fontSize=11;" vertex="1" connectable="0" parent="20">
                    <mxGeometry x="-0.1264" y="-1" relative="1" as="geometry">
                        <mxPoint x="-7" as="offset"/>
                    </mxGeometry>
                </mxCell>
                <mxCell id="26" style="edgeStyle=none;html=1;fontSize=11;startArrow=none;startFill=0;endArrow=classicThin;endFill=1;" edge="1" parent="VVbpX6g2l4Uk3AssUya3-3" source="19" target="27">
                    <mxGeometry relative="1" as="geometry">
                        <mxPoint x="680" y="120" as="targetPoint"/>
                        <Array as="points">
                            <mxPoint x="640" y="120"/>
                        </Array>
                    </mxGeometry>
                </mxCell>
                <mxCell id="29" style="edgeStyle=none;html=1;fontSize=11;startArrow=none;startFill=0;endArrow=classicThin;endFill=1;" edge="1" parent="VVbpX6g2l4Uk3AssUya3-3" source="19" target="22">
                    <mxGeometry relative="1" as="geometry">
                        <Array as="points">
                            <mxPoint x="560" y="240"/>
                        </Array>
                    </mxGeometry>
                </mxCell>
                <mxCell id="19" value="&lt;span style=&quot;font-size: 11px; font-weight: 700;&quot;&gt;processFileFunction&lt;/span&gt;" style="sketch=0;points=[[0,0,0],[0.25,0,0],[0.5,0,0],[0.75,0,0],[1,0,0],[0,1,0],[0.25,1,0],[0.5,1,0],[0.75,1,0],[1,1,0],[0,0.25,0],[0,0.5,0],[0,0.75,0],[1,0.25,0],[1,0.5,0],[1,0.75,0]];outlineConnect=0;fontColor=#232F3E;gradientColor=#F78E04;gradientDirection=north;fillColor=#D05C17;strokeColor=#ffffff;dashed=0;verticalLabelPosition=top;verticalAlign=bottom;align=center;html=1;fontSize=12;fontStyle=0;aspect=fixed;shape=mxgraph.aws4.resourceIcon;resIcon=mxgraph.aws4.lambda;labelPosition=center;" vertex="1" parent="VVbpX6g2l4Uk3AssUya3-3">
                    <mxGeometry x="520" y="80" width="80" height="80" as="geometry"/>
                </mxCell>
                <mxCell id="22" value="&lt;span style=&quot;color: rgb(35, 47, 62); font-size: 11px; font-weight: 700;&quot;&gt;resultTable&lt;/span&gt;" style="outlineConnect=0;dashed=0;verticalLabelPosition=top;verticalAlign=bottom;align=center;html=1;shape=mxgraph.aws3.dynamo_db;fillColor=#2E73B8;gradientColor=none;fontSize=14;labelPosition=center;" vertex="1" parent="VVbpX6g2l4Uk3AssUya3-3">
                    <mxGeometry x="320" y="200" width="80" height="80" as="geometry"/>
                </mxCell>
                <mxCell id="27" value="" style="dashed=0;outlineConnect=0;html=1;align=center;labelPosition=center;verticalLabelPosition=bottom;verticalAlign=top;shape=mxgraph.weblogos.aws_s3;fontSize=11;" vertex="1" parent="VVbpX6g2l4Uk3AssUya3-3">
                    <mxGeometry x="600" y="360" width="80" height="80" as="geometry"/>
                </mxCell>
                <mxCell id="28" value="7. process the query" style="text;html=1;align=center;verticalAlign=middle;resizable=0;points=[];autosize=1;strokeColor=none;fillColor=none;fontSize=11;" vertex="1" parent="VVbpX6g2l4Uk3AssUya3-3">
                    <mxGeometry x="578" y="280" width="120" height="30" as="geometry"/>
                </mxCell>
                <mxCell id="30" value="8. Update MessageId status" style="edgeLabel;html=1;align=center;verticalAlign=middle;resizable=0;points=[];fontSize=11;" vertex="1" connectable="0" parent="VVbpX6g2l4Uk3AssUya3-3">
                    <mxGeometry x="540" y="220.00482758620694" as="geometry"/>
                </mxCell>
                <mxCell id="39" style="edgeStyle=none;html=1;entryX=0.5;entryY=1;entryDx=0;entryDy=0;entryPerimeter=0;fontSize=10;startArrow=none;startFill=0;endArrow=classicThin;endFill=1;" edge="1" parent="VVbpX6g2l4Uk3AssUya3-3" source="32" target="22">
                    <mxGeometry relative="1" as="geometry">
                        <Array as="points">
                            <mxPoint x="360" y="440"/>
                        </Array>
                    </mxGeometry>
                </mxCell>
                <mxCell id="32" value="&lt;span style=&quot;border-color: var(--border-color);&quot; class=&quot;e2e-test-stack-details-header awsui_root_18wu0_dj6ht_93 awsui_box_18wu0_dj6ht_205 awsui_color-default_18wu0_dj6ht_205 awsui_font-size-heading-xl_18wu0_dj6ht_366 awsui_font-weight-default_18wu0_dj6ht_261&quot;&gt;queryResultsFunction&lt;br&gt;&lt;/span&gt;" style="sketch=0;points=[[0,0,0],[0.25,0,0],[0.5,0,0],[0.75,0,0],[1,0,0],[0,1,0],[0.25,1,0],[0.5,1,0],[0.75,1,0],[1,1,0],[0,0.25,0],[0,0.5,0],[0,0.75,0],[1,0.25,0],[1,0.5,0],[1,0.75,0]];outlineConnect=0;fontColor=#232F3E;gradientColor=#F78E04;gradientDirection=north;fillColor=#D05C17;strokeColor=#ffffff;dashed=0;verticalLabelPosition=top;verticalAlign=bottom;align=center;html=1;fontSize=11;fontStyle=1;aspect=fixed;shape=mxgraph.aws4.resourceIcon;resIcon=mxgraph.aws4.lambda;labelPosition=center;" vertex="1" parent="VVbpX6g2l4Uk3AssUya3-3">
                    <mxGeometry x="160" y="400" width="80" height="80" as="geometry"/>
                </mxCell>
                <mxCell id="36" value="2. query with MessageId query parameter" style="text;html=1;align=center;verticalAlign=middle;resizable=0;points=[];autosize=1;strokeColor=none;fillColor=none;fontSize=11;" vertex="1" parent="VVbpX6g2l4Uk3AssUya3-3">
                    <mxGeometry x="245" y="300" width="230" height="30" as="geometry"/>
                </mxCell>
                <mxCell id="VVbpX6g2l4Uk3AssUya3-30" value="Actor" style="shape=umlActor;verticalLabelPosition=bottom;verticalAlign=top;html=1;outlineConnect=0;fontSize=11;" parent="1" vertex="1">
                    <mxGeometry x="60" y="390" width="50" height="100" as="geometry"/>
                </mxCell>
                <mxCell id="VVbpX6g2l4Uk3AssUya3-36" value="" style="endArrow=classic;html=1;rounded=0;entryX=0;entryY=0.25;entryDx=0;entryDy=0;entryPerimeter=0;fontSize=11;" parent="1" target="32" edge="1">
                    <mxGeometry relative="1" as="geometry">
                        <mxPoint x="120" y="740" as="sourcePoint"/>
                        <mxPoint x="280" y="740" as="targetPoint"/>
                    </mxGeometry>
                </mxCell>
                <mxCell id="VVbpX6g2l4Uk3AssUya3-37" value="1. GET result" style="edgeLabel;resizable=0;html=1;align=center;verticalAlign=middle;fontSize=11;" parent="VVbpX6g2l4Uk3AssUya3-36" connectable="0" vertex="1">
                    <mxGeometry relative="1" as="geometry"/>
                </mxCell>
                <mxCell id="VVbpX6g2l4Uk3AssUya3-68" value="" style="endArrow=classic;html=1;rounded=0;exitX=0;exitY=0.75;exitDx=0;exitDy=0;exitPerimeter=0;fontSize=11;" parent="1" source="VVbpX6g2l4Uk3AssUya3-43" edge="1">
                    <mxGeometry relative="1" as="geometry">
                        <mxPoint x="130" y="410" as="sourcePoint"/>
                        <mxPoint x="120" y="460" as="targetPoint"/>
                    </mxGeometry>
                </mxCell>
                <mxCell id="16" value="5. MessageId" style="edgeLabel;html=1;align=center;verticalAlign=middle;resizable=0;points=[];" vertex="1" connectable="0" parent="VVbpX6g2l4Uk3AssUya3-68">
                    <mxGeometry x="0.3214" y="-2" relative="1" as="geometry">
                        <mxPoint x="32" as="offset"/>
                    </mxGeometry>
                </mxCell>
                <mxCell id="33" value="Actor" style="shape=umlActor;verticalLabelPosition=bottom;verticalAlign=top;html=1;outlineConnect=0;fontSize=11;" vertex="1" parent="1">
                    <mxGeometry x="60" y="710" width="50" height="100" as="geometry"/>
                </mxCell>
                <mxCell id="40" style="edgeStyle=none;html=1;fontSize=10;startArrow=none;startFill=0;endArrow=classicThin;endFill=1;exitX=0;exitY=0.75;exitDx=0;exitDy=0;exitPerimeter=0;" edge="1" parent="1" source="32">
                    <mxGeometry relative="1" as="geometry">
                        <mxPoint x="120" y="780" as="targetPoint"/>
                    </mxGeometry>
                </mxCell>
                <mxCell id="41" value="3. return current status of the message" style="edgeLabel;html=1;align=center;verticalAlign=middle;resizable=0;points=[];fontSize=10;" vertex="1" connectable="0" parent="40">
                    <mxGeometry x="0.0881" y="2" relative="1" as="geometry">
                        <mxPoint x="21" y="-2" as="offset"/>
                    </mxGeometry>
                </mxCell>
            </root>
        </mxGraphModel>
    </diagram>
</mxfile>